<?xml version="1.0" standalone="no"?>
<!DOCTYPE svg PUBLIC "-//W3C//DTD SVG 1.1//EN" "http://www.w3.org/Graphics/SVG/1.1/DTD/svg11.dtd" >
<svg xmlns="http://www.w3.org/2000/svg">
<metadata></metadata>
<defs>
<font id="campton-700" horiz-adv-x="1228" >
<font-face units-per-em="2048" ascent="1638" descent="-410" />
<missing-glyph horiz-adv-x="526" />
<glyph horiz-adv-x="0" />
<glyph horiz-adv-x="682" />
<glyph unicode=" "  horiz-adv-x="526" />
<glyph unicode="&#x09;" horiz-adv-x="526" />
<glyph unicode="&#xa0;" horiz-adv-x="526" />
<glyph unicode="!" horiz-adv-x="604" d="M446 455h-290l-29 938h348zM301 -23q-74 0 -126 50t-52 123t52 122.5t126 49.5t127 -49.5t53 -122.5t-53 -123t-127 -50z" />
<glyph unicode="&#x22;" horiz-adv-x="753" d="M334 1393v-607h-268v607h268zM690 1393v-607h-268v607h268z" />
<glyph unicode="#" horiz-adv-x="1624" d="M1235 578h223v-279h-311l-94 -299h-320l94 299h-278l-92 -299h-320l92 299h-174v279h262l64 204h-213v279h301l104 334h320l-105 -334h277l104 334h320l-105 -334h187v-279h-273zM700 782l-63 -204h278l64 204h-279z" />
<glyph unicode="$" horiz-adv-x="1384" d="M1288 424q0 -178 -117.5 -294.5t-320.5 -147.5v-207h-268v205q-207 30 -343 150.5t-157 332.5h346q17 -93 94 -145t199 -52q95 0 146 32.5t51 90.5q0 90 -148 119l-229 51q-206 44 -305 144.5t-99 265.5q0 182 121 301.5t324 146.5v219h268v-227q81 -16 149.5 -46.5 t132 -81.5t104 -133t50.5 -187h-348q-30 176 -225 176q-91 0 -145 -37t-54 -103q0 -54 38.5 -83.5t121.5 -47.5l194 -45q100 -22 173.5 -52t131 -76.5t86.5 -113.5t29 -155z" />
<glyph unicode="%" horiz-adv-x="2234" d="M553 1423q180 0 300 -114.5t120 -294.5q0 -181 -120 -296.5t-300 -115.5t-300 115.5t-120 296.5q0 180 120 294.5t300 114.5zM750 0h-222l930 1393h221zM555 819q79 0 136 55t57 140t-57 139.5t-136 54.5q-82 0 -138.5 -54t-56.5 -140t57 -140.5t138 -54.5zM1679 791 q180 0 300 -115t120 -295q0 -181 -120 -296.5t-300 -115.5t-299.5 115.5t-119.5 296.5q0 180 119.5 295t299.5 115zM1679 184q80 0 137.5 55t57.5 142q0 84 -57.5 138t-137.5 54t-136 -54t-56 -138q0 -87 56 -142t136 -55z" />
<glyph unicode="&#x26;" horiz-adv-x="1511" d="M1071 0l-88 84q-171 -115 -403 -115q-241 0 -387 121t-146 318q0 122 63.5 214.5t172.5 151.5q-84 121 -84 244q0 172 128 288.5t337 116.5q205 0 328 -118t138 -320h-311q-8 74 -46 115t-99 41q-57 0 -94 -36t-37 -95q0 -41 25 -83.5t60 -79.5t115 -112l232 -225 l147 242h338l-264 -437l-8 -14l309 -301h-426zM586 248q89 0 176 43l-221 207l-78 73q-96 -62 -96 -151q0 -71 63.5 -121.5t155.5 -50.5z" />
<glyph unicode="'" horiz-adv-x="397" d="M334 1393v-607h-268v607h268z" />
<glyph unicode="(" horiz-adv-x="796" d="M528 1511l228 -227q-108 -114 -173 -210t-104 -217t-39 -261q0 -138 39 -257.5t104 -214.5t173 -210l-228 -227q-438 403 -438 909q0 512 438 915z" />
<glyph unicode=")" horiz-adv-x="790" d="M41 1284l227 227q439 -404 439 -915q0 -505 -439 -909l-227 227q163 172 239 326t76 356q0 205 -76 360.5t-239 327.5z" />
<glyph unicode="*" horiz-adv-x="843" d="M776 963l-86 -148l-182 109v-197h-172v197l-182 -109l-86 148l186 112l-186 113l86 149l182 -110v192h172v-192l182 110l86 -149l-186 -113z" />
<glyph unicode="+" horiz-adv-x="1370" d="M821 541v-336h-272v336h-350v262h350v336h272v-336h353v-262h-353z" />
<glyph unicode="," horiz-adv-x="479" d="M55 -231l107 227q-107 46 -107 149q0 72 54 123t131 51t130.5 -50.5t53.5 -125.5q0 -37 -10.5 -69t-51.5 -101l-122 -204h-185z" />
<glyph unicode="-" horiz-adv-x="1134" d="M199 371v315h739v-315h-739z" />
<glyph unicode="." horiz-adv-x="481" d="M240 -37q-76 0 -130.5 52t-54.5 128q0 74 54.5 126.5t130.5 52.5q77 0 132.5 -52t55.5 -127q0 -76 -55.5 -128t-132.5 -52z" />
<glyph unicode="/" horiz-adv-x="882" d="M383 -328h-317l516 1823h317z" />
<glyph unicode="0" horiz-adv-x="1470" d="M735 1423q197 0 344.5 -94t224 -258t76.5 -375t-76.5 -375t-224 -258t-344.5 -94t-344.5 94t-224 258t-76.5 375t76.5 375t224 258t344.5 94zM735 270q151 0 234.5 119t83.5 307t-83.5 307t-234.5 119t-234 -119t-83 -307t83 -307t234 -119z" />
<glyph unicode="1" horiz-adv-x="1087" d="M1077 281v-281h-1005v281h348v747l-328 -92v299l455 158h207v-1112h323z" />
<glyph unicode="2" horiz-adv-x="1171" d="M1087 281v-281h-993v164l424 514q17 20 49 57t45 53t35 43t31 42.5t20 36t15 38t4 35.5q0 56 -37.5 96.5t-114.5 40.5q-73 0 -117.5 -44.5t-52.5 -123.5h-329q5 213 135 342t362 129q233 0 371.5 -124t138.5 -304q0 -68 -34 -141t-86 -141.5t-167 -206.5l-188 -225h489z " />
<glyph unicode="3" horiz-adv-x="1183" d="M940 700q178 -96 178 -297q0 -191 -145 -312.5t-379 -121.5q-238 0 -370 116.5t-156 322.5h323q16 -78 65.5 -119t149.5 -41q84 0 137.5 43.5t53.5 111.5q0 72 -58 116t-149 44h-121v254h121q81 0 131.5 44.5t50.5 115.5q0 72 -46.5 115t-123.5 43t-127.5 -44.5 t-56.5 -117.5h-322q12 199 146 318.5t352 119.5q219 0 352 -117t133 -305q0 -190 -139 -289z" />
<glyph unicode="4" horiz-adv-x="1343" d="M1274 246h-174v-246h-326v246h-708v215l378 932h332l-327 -858h325v383h326v-383h174v-289z" />
<glyph unicode="5" horiz-adv-x="1251" d="M489 905h173q230 0 363.5 -127t133.5 -327q0 -213 -148 -347.5t-386 -134.5q-232 0 -378.5 119.5t-170.5 319.5h325q21 -75 78 -117.5t146 -42.5q97 0 158 55t61 141q0 83 -63.5 135t-174.5 52h-434l2 762h920v-295h-602z" />
<glyph unicode="6" horiz-adv-x="1277" d="M950 1393l-266 -416q230 -12 374 -151t144 -341q0 -145 -70.5 -262.5t-199.5 -185.5t-293 -68q-247 0 -404 147.5t-157 362.5q0 145 119 338l362 576h391zM639 246q103 0 170.5 68t67.5 159t-67 158t-171 67q-99 0 -164 -47l-8 -14q-68 -97 -68 -166q0 -89 68.5 -157 t171.5 -68z" />
<glyph unicode="7" horiz-adv-x="1073" d="M1036 1393v-195l-534 -1198h-377l491 1083h-596v310h1016z" />
<glyph unicode="8" horiz-adv-x="1275" d="M979 739q107 -53 165 -140t58 -196q0 -198 -151 -316t-414 -118q-262 0 -411.5 118t-149.5 316q0 109 58 196t163 140q-78 47 -121 119.5t-43 163.5q0 178 141 289.5t363 111.5q223 0 364.5 -111.5t141.5 -289.5q0 -182 -164 -283zM637 1174q-84 0 -137.5 -49.5 t-53.5 -123.5q0 -73 53.5 -122.5t137.5 -49.5q83 0 137.5 50t54.5 122q0 73 -54 123t-138 50zM637 240q91 0 151 54t60 132q0 77 -59.5 128.5t-151.5 51.5q-91 0 -150 -51t-59 -129q0 -79 59.5 -132.5t149.5 -53.5z" />
<glyph unicode="9" horiz-adv-x="1277" d="M639 1423q247 0 404 -147.5t157 -362.5q0 -145 -119 -338l-362 -575h-391l266 416q-230 12 -374 151t-144 340q0 145 70.5 262.5t199.5 185.5t293 68zM803 741l8 15q68 97 68 166q0 89 -68.5 157t-171.5 68t-170.5 -68t-67.5 -159t67 -158.5t171 -67.5q99 0 164 47z" />
<glyph unicode=":" horiz-adv-x="481" d="M240 659q-76 0 -130.5 52t-54.5 129q0 74 54.5 125t130.5 51q77 0 132.5 -51t55.5 -125q0 -77 -55 -129t-133 -52zM242 -37q-77 0 -132 52t-55 128q0 75 55 127t132 52t131.5 -52t54.5 -127q0 -76 -54.5 -128t-131.5 -52z" />
<glyph unicode=";" horiz-adv-x="481" d="M240 659q-76 0 -130.5 52t-54.5 129q0 74 54.5 125t130.5 51q77 0 132.5 -51t55.5 -125q0 -77 -55 -129t-133 -52zM57 -231l107 227q-107 46 -107 149q0 72 54 123t131 51t130.5 -50.5t53.5 -125.5q0 -37 -10 -69t-51 -101l-123 -204h-185z" />
<glyph unicode="&#x3c;" horiz-adv-x="1083" d="M952 1167v-301l-528 -237l528 -240v-301l-864 389v301z" />
<glyph unicode="=" horiz-adv-x="1382" d="M1186 739h-987v262h987v-262zM1186 315h-987v263h987v-263z" />
<glyph unicode="&#x3e;" horiz-adv-x="1083" d="M993 477l-864 -389v301l528 240l-528 237v301l864 -389v-301z" />
<glyph unicode="?" horiz-adv-x="1103" d="M375 449l-21 333h168q89 0 146 48t57 131q0 78 -49.5 126t-130.5 48t-132 -44t-57 -118h-321q12 202 141.5 320t358.5 118q217 0 357 -124.5t140 -325.5q0 -161 -106 -265t-289 -129l-10 -118h-252zM492 -23q-73 0 -126 50t-53 123t53 122.5t126 49.5q74 0 127 -49.5 t53 -122.5t-53 -123t-127 -50z" />
<glyph unicode="@" horiz-adv-x="2027" d="M1460 905v-495q0 -144 99 -144q143 0 143 262q0 137 -50 257t-137.5 205.5t-211.5 134.5t-267 49q-194 0 -356.5 -90t-256 -245.5t-93.5 -342.5t92.5 -343t251 -245.5t346.5 -89.5q250 0 438 149l119 -178q-237 -178 -555 -178q-187 0 -355.5 68t-291 185t-194.5 282 t-72 350t72.5 349t196 280.5t293.5 184.5t359 68q150 0 286.5 -40.5t245.5 -116.5t189.5 -178.5t124 -233t43.5 -274.5q0 -83 -13 -153.5t-42 -131t-72 -103t-106 -66.5t-142 -24q-211 0 -299 133q-122 -129 -301 -129q-173 0 -292.5 124.5t-119.5 308.5q0 185 119.5 308.5 t292.5 123.5q131 0 234 -70v49h282zM1004 297q108 0 180 94q-6 55 -6 111v100q-72 90 -174 90q-77 0 -135 -54.5t-58 -143.5q0 -90 57.5 -143.5t135.5 -53.5z" />
<glyph unicode="A" horiz-adv-x="1562" d="M1075 240h-590l-92 -240h-368l591 1401h332l590 -1401h-369zM961 535l-181 462l-180 -462h361z" />
<glyph unicode="B" horiz-adv-x="1421" d="M1096 717q122 -27 188 -119t66 -211q0 -175 -133.5 -281t-364.5 -106h-729v1393h688q224 0 350.5 -99.5t126.5 -271.5q0 -100 -52 -187t-140 -118zM469 1110v-285h287q96 0 149 40.5t53 109.5q0 135 -202 135h-287zM469 287h336q103 0 155 40t52 105q0 64 -51.5 96.5 t-147.5 32.5h-344v-274z" />
<glyph unicode="C" horiz-adv-x="1615" d="M825 295q136 0 226 75.5t118 207.5h357q-34 -272 -225 -439.5t-474 -167.5q-155 0 -292 54.5t-234.5 150t-154 230.5t-56.5 290t56.5 290t154 230.5t234.5 150t292 54.5q283 0 474 -167t225 -439h-357q-28 132 -118 207.5t-226 75.5q-169 0 -277 -114t-108 -288 t108 -287.5t277 -113.5z" />
<glyph unicode="D" horiz-adv-x="1509" d="M123 1393h559q162 0 302 -51.5t239 -142t155 -219.5t56 -280q0 -153 -56 -283.5t-155 -222t-239 -143t-302 -51.5h-559v1393zM469 311h213q170 0 284.5 111.5t114.5 277.5q0 162 -114.5 271.5t-284.5 109.5h-213v-770z" />
<glyph unicode="E" horiz-adv-x="1249" d="M469 1092v-254h618v-295h-618v-242h707v-301h-1053v1393h1053v-301h-707z" />
<glyph unicode="F" horiz-adv-x="1193" d="M469 1087v-294h598v-301h-598v-492h-346v1393h1040v-306h-694z" />
<glyph unicode="G" horiz-adv-x="1656" d="M1544 782v-782h-258l-14 168q-160 -197 -441 -197q-214 0 -384 94.5t-263.5 256.5t-93.5 360q0 213 97 382.5t267 263t380 93.5q172 0 318.5 -61t247.5 -181t130 -282h-365q-21 58 -57 100t-80.5 64.5t-90 32.5t-95.5 10q-180 0 -291 -114.5t-111 -299.5 q0 -168 111.5 -282.5t292.5 -114.5q120 0 210.5 55.5t143.5 157.5l-399 4v272h745z" />
<glyph unicode="H" horiz-adv-x="1503" d="M1380 1393v-1393h-344v522h-567v-522h-346v1393h346v-559h567v559h344z" />
<glyph unicode="I" horiz-adv-x="591" d="M469 1393v-1393h-346v1393h346z" />
<glyph unicode="J" horiz-adv-x="1275" d="M1174 1393v-836q0 -282 -152 -435t-424 -153q-248 0 -399.5 138.5t-161.5 386.5h344q6 -99 68 -154t159 -55t155 72t58 200v836h353z" />
<glyph unicode="K" horiz-adv-x="1490" d="M668 512l-199 -229v-283h-346v1393h346v-633l555 633h410l-531 -611l576 -782h-422z" />
<glyph unicode="L" horiz-adv-x="1198" d="M1157 305v-305h-1034v1393h346v-1088h688z" />
<glyph unicode="M" horiz-adv-x="1748" d="M1626 1393v-1393h-346v698l-309 -477v-2h-193v2l-311 481l2 -702h-346v1393h258l493 -744l494 744h258z" />
<glyph unicode="N" horiz-adv-x="1525" d="M1403 1393v-1393h-266l-668 764v-764h-346v1393h264l672 -785v785h344z" />
<glyph unicode="O" horiz-adv-x="1654" d="M827 1421q155 0 292 -56.5t235 -153.5t154.5 -231t56.5 -284t-56.5 -284t-154.5 -231t-235 -153.5t-292 -56.5q-206 0 -375.5 96t-265.5 262.5t-96 366.5t96 366.5t265.5 262.5t375.5 96zM827 293q166 0 276.5 118t110.5 285t-110.5 285.5t-276.5 118.5t-276.5 -118.5 t-110.5 -285.5t110.5 -285t276.5 -118z" />
<glyph unicode="P" horiz-adv-x="1312" d="M123 1393h561q273 0 431.5 -137.5t158.5 -372.5q0 -244 -166.5 -386.5t-450.5 -142.5h-188v-354h-346v1393zM469 657h209q114 0 183 61.5t69 164.5q0 93 -69 148.5t-183 55.5h-209v-430z" />
<glyph unicode="Q" horiz-adv-x="1654" d="M1567 696q0 -158 -62.5 -297t-173.5 -241l219 -258l-245 -224l-275 322q-94 -27 -203 -27q-206 0 -375.5 96t-265.5 262.5t-96 366.5t96 366.5t265.5 262.5t375.5 96q155 0 293 -56.5t236 -153.5t154.5 -231t56.5 -284zM440 696q0 -167 110.5 -285t276.5 -118t276.5 118 t110.5 285t-110.5 285.5t-276.5 118.5t-276.5 -118.5t-110.5 -285.5z" />
<glyph unicode="R" horiz-adv-x="1435" d="M522 403h-53v-403h-346v1393h602q269 0 426.5 -132t157.5 -358q0 -172 -97.5 -296.5t-269.5 -174.5l459 -432h-451zM469 1087v-372h250q110 0 177 51t67 137q0 84 -67 134t-177 50h-250z" />
<glyph unicode="S" horiz-adv-x="1384" d="M690 1423q74 0 145.5 -11.5t151 -43.5t140 -82t105 -133.5t54.5 -191.5h-348q-30 176 -225 176q-91 0 -145 -37t-54 -103q0 -54 38.5 -83.5t121.5 -47.5l194 -45q100 -22 173.5 -52t131 -76.5t86.5 -113.5t29 -155q0 -208 -157.5 -330.5t-419.5 -122.5q-96 0 -182.5 18 t-164.5 56.5t-136.5 95.5t-97 139t-48.5 183h346q17 -93 94 -145t199 -52q95 0 146 32.5t51 90.5q0 90 -148 119l-229 51q-206 44 -305 144.5t-99 265.5q0 208 152.5 331t400.5 123z" />
<glyph unicode="T" horiz-adv-x="1327" d="M1280 1083h-444v-1083h-344v1083h-445v310h1233v-310z" />
<glyph unicode="U" horiz-adv-x="1501" d="M1399 1393v-744q0 -321 -173.5 -500.5t-475.5 -179.5q-300 0 -474 179.5t-174 500.5v744h349v-750q0 -160 81.5 -255t217.5 -95q137 0 219 95t82 255v750h348z" />
<glyph unicode="V" horiz-adv-x="1597" d="M1577 1393l-602 -1401h-350l-605 1401h381l398 -944l397 944h381z" />
<glyph unicode="W" horiz-adv-x="2211" d="M2171 1393l-449 -1401h-336l-280 854l-281 -854h-333l-451 1401h367l260 -865l295 865h286l295 -865l260 865h367z" />
<glyph unicode="X" horiz-adv-x="1425" d="M1014 0l-299 428l-301 -428h-398l465 686l-458 707h415l275 -430l274 430h416l-459 -707l465 -686h-395z" />
<glyph unicode="Y" horiz-adv-x="1472" d="M1460 1393l-549 -973v-420h-348v420l-551 973h383l340 -607l342 607h383z" />
<glyph unicode="Z" horiz-adv-x="1347" d="M1276 305v-305h-1206v164l690 923h-656v306h1160v-164l-662 -924h674z" />
<glyph unicode="[" horiz-adv-x="784" d="M432 10h297v-311h-629v1796h629v-309h-297v-1176z" />
<glyph unicode="\" horiz-adv-x="882" d="M342 1495l516 -1823h-317l-516 1823h317z" />
<glyph unicode="]" horiz-adv-x="784" d="M55 1186v309h629v-1796h-629v311h297v1176h-297z" />
<glyph unicode="^" horiz-adv-x="897" d="M862 891h-289l-124 252l-125 -252h-289l284 502h259z" />
<glyph unicode="_" horiz-adv-x="1271" d="M55 -186h1164v-281h-1164v281z" />
<glyph unicode="`" d="M831 1141h-309l-205 327h351z" />
<glyph unicode="a" horiz-adv-x="1277" d="M1165 993v-993h-331v55q-118 -75 -273 -75q-99 0 -190 40t-157.5 108t-106 165t-39.5 205q0 145 67 264.5t180 186.5t246 67q153 0 273 -76v53h331zM629 252q125 0 205 92v309q-83 92 -205 92q-101 0 -168.5 -71.5t-67.5 -175.5q0 -103 67.5 -174.5t168.5 -71.5z" />
<glyph unicode="b" horiz-adv-x="1277" d="M717 1012q99 0 190 -39.5t157.5 -107.5t106 -164.5t39.5 -204.5q0 -220 -145 -370.5t-348 -150.5q-149 0 -271 74v-49h-333v1454h333v-516q122 74 271 74zM651 248q101 0 167.5 71.5t66.5 176.5q0 102 -67 173.5t-167 71.5q-125 0 -205 -92v-311q78 -90 205 -90z" />
<glyph unicode="c" horiz-adv-x="1187" d="M612 258q75 0 129 41.5t66 108.5h313q-19 -191 -161.5 -311t-348.5 -120q-154 0 -277.5 66.5t-194 186t-70.5 268.5q0 225 154 371.5t388 146.5q206 0 348.5 -119.5t161.5 -310.5h-313q-12 67 -66 108t-129 41q-105 0 -166 -66.5t-61 -170.5t61 -172t166 -68z" />
<glyph unicode="d" horiz-adv-x="1277" d="M1165 1454v-1454h-331v51q-120 -76 -273 -76q-203 0 -348 150.5t-145 370.5q0 108 39.5 204.5t106 164.5t157.5 107.5t190 39.5q153 0 273 -76v518h331zM629 248q125 0 205 92v309q-83 92 -205 92q-100 0 -168 -71.5t-68 -173.5q0 -105 67.5 -176.5t168.5 -71.5z" />
<glyph unicode="e" horiz-adv-x="1173" d="M1104 518q0 -80 -6 -119h-707q22 -72 77.5 -115.5t145.5 -43.5q106 0 152 71h330q-37 -153 -169 -243.5t-317 -90.5q-243 0 -392.5 146t-149.5 375q0 228 146.5 373t383.5 145q218 0 362 -138.5t144 -359.5zM596 760q-82 0 -135 -44t-72 -122h404q-13 81 -65 123.5 t-132 42.5z" />
<glyph unicode="f" horiz-adv-x="931" d="M582 993h350v-284h-350v-709h-332v709h-244v284h244v119q0 212 121.5 338.5t314.5 126.5q124 0 264 -37l-45 -276q-88 18 -151 18q-78 0 -125 -44.5t-47 -117.5v-127z" />
<glyph unicode="g" horiz-adv-x="1286" d="M1171 993v-977q0 -229 -146 -360t-384 -131q-228 0 -377.5 118.5t-161.5 311.5h330q11 -71 64 -110.5t143 -39.5q89 0 145 53.5t56 151.5v94q-119 -69 -271 -69q-203 0 -348 141.5t-145 341.5q0 111 39 207t106 162t157 103.5t191 37.5q149 0 271 -74v39h331zM635 299 q125 0 205 92v275q-80 92 -205 92q-102 0 -169 -67t-67 -173q0 -85 69 -152t167 -67z" />
<glyph unicode="h" horiz-adv-x="1241" d="M719 1024q190 0 306 -123.5t116 -333.5v-567h-332v514q0 103 -48.5 156t-133.5 53q-96 0 -181 -98v-625h-333v1454h333v-526q126 96 273 96z" />
<glyph unicode="i" horiz-adv-x="571" d="M285 1149q-82 0 -138.5 53.5t-56.5 132.5q0 81 56.5 135t138.5 54q81 0 137.5 -54t56.5 -135q0 -79 -57 -132.5t-137 -53.5zM453 993v-993h-332v993h332z" />
<glyph unicode="j" horiz-adv-x="565" d="M279 1149q-80 0 -137.5 53.5t-57.5 132.5q0 81 57 135t138 54q82 0 138 -54t56 -135q0 -79 -56 -132.5t-138 -53.5zM446 993v-913q0 -121 -21.5 -205.5t-75 -150.5t-150.5 -99.5t-242 -36.5l-29 277q107 10 146 47.5t39 124.5v956h333z" />
<glyph unicode="k" horiz-adv-x="1224" d="M584 344l-138 -147v-197h-333v1454h333v-831l345 370h395l-377 -405l410 -588h-398z" />
<glyph unicode="l" horiz-adv-x="559" d="M446 1454v-1454h-333v1454h333z" />
<glyph unicode="m" horiz-adv-x="1867" d="M1350 1024q181 0 296 -124t115 -333v-567h-331v514q0 103 -47.5 156t-131.5 53q-83 0 -151 -82q4 -50 4 -74v-567h-332v514q0 103 -47 156t-131 53q-82 0 -148 -86v-637h-333v993h333v-57q52 45 108.5 66.5t135.5 21.5q190 0 307 -135q79 71 161.5 103t191.5 32z" />
<glyph unicode="n" horiz-adv-x="1241" d="M719 1024q190 0 306 -123.5t116 -333.5v-567h-332v514q0 103 -48.5 156t-133.5 53q-96 0 -181 -98v-625h-333v993h333v-65q126 96 273 96z" />
<glyph unicode="o" horiz-adv-x="1214" d="M608 1016q234 0 385.5 -146.5t151.5 -371.5q0 -228 -151.5 -378.5t-385.5 -150.5q-235 0 -387.5 150.5t-152.5 378.5q0 225 152 371.5t388 146.5zM608 256q98 0 160.5 69t62.5 171q0 99 -62.5 166t-160.5 67q-101 0 -163 -67t-62 -166q0 -102 62 -171t163 -69z" />
<glyph unicode="p" horiz-adv-x="1277" d="M717 1016q133 0 246 -67t180 -186.5t67 -264.5q0 -108 -39.5 -205t-106 -165t-157.5 -108t-190 -40q-151 0 -271 73v-514h-333v1454h333v-51q122 74 271 74zM651 252q100 0 167 71t67 175t-67 175.5t-167 71.5q-125 0 -205 -92v-311q78 -90 205 -90z" />
<glyph unicode="q" horiz-adv-x="1277" d="M1161 993v-1454h-332v514q-120 -73 -270 -73q-204 0 -348.5 149.5t-144.5 368.5q0 220 144 369t349 149q148 0 270 -74v51h332zM625 252q126 0 204 90v311q-80 92 -204 92q-101 0 -168.5 -71.5t-67.5 -175.5q0 -103 67.5 -174.5t168.5 -71.5z" />
<glyph unicode="r" horiz-adv-x="839" d="M788 1010v-316q-222 -8 -342 -125v-569h-333v993h333v-106q142 123 342 123z" />
<glyph unicode="s" horiz-adv-x="1067" d="M45 342l295 -2q10 -63 59.5 -94t128.5 -31q66 0 105 19t39 51q0 54 -97 69l-200 35q-135 23 -214 98t-79 201q0 155 121.5 243.5t322.5 88.5q84 0 160 -17.5t144.5 -55.5t111.5 -107.5t49 -163.5h-297q-4 55 -50 82.5t-118 27.5q-60 0 -92.5 -20t-32.5 -51q0 -60 105 -78 l184 -31q311 -59 311 -301q0 -111 -63 -188t-166 -112.5t-237 -35.5q-99 0 -183 21.5t-151 65.5t-108 117t-48 169z" />
<glyph unicode="t" horiz-adv-x="962" d="M872 299l37 -281q-92 -29 -157 -39t-144 -10q-180 0 -289.5 122t-109.5 323v295h-195v284h195v338h332v-338h338v-284h-338v-285q0 -74 40.5 -112t114.5 -38q44 0 176 25z" />
<glyph unicode="u" horiz-adv-x="1241" d="M1128 993v-993h-331v66q-127 -97 -273 -97q-191 0 -307.5 123.5t-116.5 333.5v567h332v-516q0 -103 49 -156t133 -53q93 0 183 99v626h331z" />
<glyph unicode="v" horiz-adv-x="1216" d="M1196 993l-430 -993h-315l-431 993h351l237 -573l238 573h350z" />
<glyph unicode="w" horiz-adv-x="1658" d="M1630 993l-340 -993h-301l-160 516l-159 -516h-301l-342 993h348l153 -530l170 530h263l167 -528l156 528h346z" />
<glyph unicode="x" horiz-adv-x="1163" d="M797 494l348 -494h-365l-198 285l-199 -285h-367l349 496l-349 497h379l187 -262l184 262h379z" />
<glyph unicode="y" horiz-adv-x="1312" d="M1278 993l-610 -1452h-351l189 447l-471 1005h350l287 -612l258 612h348z" />
<glyph unicode="z" horiz-adv-x="1048" d="M987 817l-450 -543h450v-274h-926v162l467 555h-458v276h917v-176z" />
<glyph unicode="{" horiz-adv-x="753" d="M549 1102v-240q0 -114 -30.5 -173t-127.5 -89q98 -30 128 -86.5t30 -169.5v-240q0 -48 41 -78t108 -30v-309q-218 0 -349.5 107t-131.5 290v270q0 28 -3 47t-13 32t-20 20t-31.5 10.5t-40.5 4.5t-54 1v262q35 0 54 1t40.5 4.5t31.5 10.5t20 20t13 32t3 47v276 q0 183 131.5 290.5t349.5 107.5v-310q-67 0 -108 -30t-41 -78z" />
<glyph unicode="|" horiz-adv-x="675" d="M485 1495v-1823h-295v1823h295z" />
<glyph unicode="}" horiz-adv-x="774" d="M225 862v240q0 48 -41 78t-108 30v310q218 0 349.5 -107.5t131.5 -290.5v-276q0 -28 3 -47t13 -32t20 -20t31.5 -10.5t40.5 -4.5t54 -1v-262q-35 0 -54 -1t-40.5 -4.5t-31.5 -10.5t-20 -20t-13 -32t-3 -47v-270q0 -183 -131.5 -290t-349.5 -107v309q67 0 108 30t41 78 v240q0 113 30 169.5t128 86.5q-97 30 -127.5 89t-30.5 173z" />
<glyph unicode="~" horiz-adv-x="968" d="M657 856h283q0 -99 -30.5 -173.5t-79.5 -113.5t-108.5 -56t-119.5 -8t-110 38l-86 53q-35 21 -56 14.5t-30 -25t-9 -46.5h-280q0 99 30 173t78.5 112.5t108 55t119 8t110.5 -37.5l88 -51q35 -22 55 -15t28.5 25.5t8.5 46.5z" />
<glyph unicode="&#xa1;" horiz-adv-x="604" d="M301 1022q74 0 127 -49.5t53 -122.5t-53 -122.5t-127 -49.5t-126 49.5t-52 122.5t52 122.5t126 49.5zM127 -393l29 938h290l29 -938h-348z" />
<glyph unicode="&#xa2;" horiz-adv-x="1187" d="M610 258q76 0 129.5 41t65.5 109h313q-13 -157 -114 -267.5t-256 -146.5v-207h-269v205q-185 39 -298 176.5t-113 329.5t113 328t298 175v240h269v-242q156 -36 256.5 -146.5t113.5 -266.5h-313q-12 68 -65.5 108.5t-129.5 40.5q-104 0 -165.5 -67t-61.5 -170 q0 -104 62 -172t165 -68z" />
<glyph unicode="&#xa3;" horiz-adv-x="1263" d="M502 285h684v-285h-1129v285h115v266h-115v258h115v113q0 225 143 360t379 135q220 0 360.5 -119t159.5 -323h-331q-13 73 -63.5 114t-125.5 41q-88 0 -140 -56t-52 -152v-113h372v-258h-372v-266z" />
<glyph unicode="&#xa5;" horiz-adv-x="1472" d="M1042 651h234v-215h-354l-11 -16v-70h365v-215h-365v-135h-348v135h-366v215h366v70l-10 16h-356v215h235l-420 742h383l340 -607l342 607h383z" />
<glyph unicode="&#xa7;" horiz-adv-x="1148" d="M1094 494q0 -85 -36.5 -154t-105.5 -113q60 -86 60 -200q0 -162 -123.5 -260.5t-317.5 -98.5q-204 0 -334 110.5t-145 299.5h334q5 -60 40 -95.5t99 -35.5q48 0 77.5 23.5t29.5 62.5q0 65 -82 102l-234 103q-162 70 -231.5 155t-69.5 197q0 85 37.5 153t106.5 111 q-62 92 -62 203q0 162 122.5 259t318.5 97q204 0 334 -109.5t145 -297.5h-334q-5 59 -40 95t-99 36q-48 0 -77.5 -23.5t-29.5 -62.5q0 -66 82 -103l234 -104q161 -70 231 -154.5t70 -195.5zM494 494l235 -103q25 11 40 31.5t15 46.5q0 35 -31 62.5t-98 56.5l-233 102 q-26 -7 -41.5 -28.5t-15.5 -49.5q0 -34 31.5 -61.5t97.5 -56.5z" />
<glyph unicode="&#xa8;" d="M381 1487q77 0 131.5 -52t54.5 -128t-54.5 -128.5t-131.5 -52.5q-78 0 -133 52.5t-55 128.5t55 128t133 52zM850 1487q77 0 131.5 -52t54.5 -128t-54.5 -128.5t-131.5 -52.5q-78 0 -133 52.5t-55 128.5t55 128t133 52z" />
<glyph unicode="&#xa9;" horiz-adv-x="1669" d="M836 1423q150 0 287 -55.5t238 -151.5t160.5 -231.5t59.5 -288.5t-59.5 -288.5t-160.5 -231.5t-238 -151.5t-287 -55.5q-201 0 -372 94t-272.5 262t-101.5 371t101.5 371t272.5 262t372 94zM834 154q110 0 211.5 42t176.5 114t119.5 173t44.5 213q0 149 -75.5 274.5 t-202.5 197t-274 71.5q-146 0 -272.5 -71.5t-202.5 -197t-76 -274.5t76 -274.5t202.5 -196.5t272.5 -71zM838 827q-59 0 -96 -38t-37 -95q0 -55 37 -94t96 -39q40 0 72 21.5t44 54.5h217q-17 -122 -109 -197t-224 -75q-150 0 -247 93.5t-97 235.5q0 143 97 237.5t247 94.5 q132 0 224 -75.5t109 -198.5h-217q-12 34 -43.5 54.5t-72.5 20.5z" />
<glyph unicode="&#xaa;" horiz-adv-x="743" d="M373 1403q144 0 230.5 -77.5t86.5 -209.5v-397h-217v24q-77 -36 -164 -36q-125 0 -200.5 57.5t-75.5 157.5q0 93 70 143.5t194 50.5h176q0 111 -100 111q-41 0 -69.5 -20t-31.5 -56h-213q3 124 94.5 188t219.5 64zM340 879q70 0 133 39v67h-170q-27 0 -43 -11.5 t-16 -31.5q0 -26 23.5 -44.5t72.5 -18.5z" />
<glyph unicode="&#xab;" horiz-adv-x="995" d="M535 846l-195 -330l195 -330h-295l-195 330l195 330h295zM950 846l-194 -330l194 -330h-295l-194 330l194 330h295z" />
<glyph unicode="&#xad;" horiz-adv-x="1134" d="M199 371v315h739v-315h-739z" />
<glyph unicode="&#xae;" horiz-adv-x="1140" d="M569 1417q141 0 261 -65.5t191 -183.5t71 -261q0 -142 -71 -259.5t-191 -183t-261 -65.5t-260.5 65.5t-190.5 183t-71 259.5q0 143 71 261t190.5 183.5t260.5 65.5zM569 543q149 0 259 106.5t110 257.5q0 152 -110 259.5t-259 107.5t-257.5 -107.5t-108.5 -259.5 q0 -151 108.5 -257.5t257.5 -106.5zM766 975q0 -79 -72 -121l92 -139h-143l-70 112h-51v-112h-119v413h185q82 0 130 -41.5t48 -111.5zM522 928h64q27 0 42 13.5t15 35.5q0 21 -15 34t-42 13h-64v-96z" />
<glyph unicode="&#xaf;" d="M907 1421v-254h-585v254h585z" />
<glyph unicode="&#xb0;" horiz-adv-x="946" d="M473 1423q157 0 262 -100.5t105 -255.5t-105 -255.5t-262 -100.5t-262 100.5t-105 255.5t105 255.5t262 100.5zM473 924q59 0 102 42t43 101q0 61 -43 102t-102 41t-102 -41t-43 -102q0 -59 43 -101t102 -42z" />
<glyph unicode="&#xb1;" horiz-adv-x="1370" d="M1171 664h-350v-252h-272v252h-350v262h350v254h272v-254h350v-262zM1171 332v-262h-972v262h972z" />
<glyph unicode="&#xb4;" d="M961 1468l-205 -327h-310l164 327h351z" />
<glyph unicode="&#xb6;" horiz-adv-x="1576" d="M1462 1393v-1721h-299v1467h-145v-1467h-301v744h-148q-148 0 -268 62.5t-190 178.5t-70 263q0 210 150.5 341.5t377.5 131.5h893zM717 1139h-148q-109 0 -175 -60.5t-66 -160.5q0 -106 66 -171t175 -65h148v457z" />
<glyph unicode="&#xb7;" horiz-adv-x="481" d="M240 387q-76 0 -130.5 51t-54.5 127t54.5 127t130.5 51q78 0 133 -51t55 -127t-55 -127t-133 -51z" />
<glyph unicode="&#xb8;" d="M670 -467h-277l88 363h312z" />
<glyph unicode="&#xba;" horiz-adv-x="798" d="M399 1407q157 0 258 -99t101 -249q0 -153 -100.5 -252.5t-258.5 -99.5q-156 0 -257 99.5t-101 252.5q0 150 101 249t257 99zM399 901q63 0 103.5 45.5t40.5 112.5q0 63 -40.5 106t-103.5 43q-65 0 -105 -43t-40 -106q0 -67 40 -112.5t105 -45.5z" />
<glyph unicode="&#xbb;" horiz-adv-x="995" d="M535 516l-195 -330h-295l195 330l-195 330h295zM950 516l-194 -330h-295l194 330l-194 330h295z" />
<glyph unicode="&#xbf;" horiz-adv-x="1103" d="M610 1130q74 0 127.5 -49.5t53.5 -122.5t-53.5 -122.5t-127.5 -49.5t-127 49.5t-53 122.5t53 122.5t127 49.5zM729 659l21 -333h-168q-89 0 -146 -48t-57 -131q0 -78 49.5 -126t130.5 -48t131 44t58 118h321q-12 -202 -141.5 -320t-358.5 -118q-217 0 -357 124.5 t-140 325.5q0 162 105.5 265.5t289.5 128.5l10 118h252z" />
<glyph unicode="&#xc0;" horiz-adv-x="1562" d="M653 1536l-204 328h350l164 -328h-310zM1075 240h-590l-92 -240h-368l591 1401h330l590 -1401h-367zM961 535l-181 462l-180 -462h361z" />
<glyph unicode="&#xc1;" horiz-adv-x="1562" d="M938 1536h-309l164 328h350zM1075 240h-590l-92 -240h-368l591 1401h330l590 -1401h-367zM961 535l-181 462l-180 -462h361z" />
<glyph unicode="&#xc4;" horiz-adv-x="1562" d="M547 1522q-79 0 -134 52t-55 128t55 128t134 52q77 0 131.5 -52t54.5 -128t-54.5 -128t-131.5 -52zM1016 1522q-79 0 -134 52t-55 128t55 128t134 52q77 0 131.5 -52t54.5 -128t-54.5 -128t-131.5 -52zM1075 240h-590l-92 -240h-368l591 1401h330l590 -1401h-367z M961 535l-181 462l-180 -462h361z" />
<glyph unicode="&#xc5;" horiz-adv-x="1562" d="M780 1532q-113 0 -183.5 65.5t-70.5 171.5q0 105 70.5 170.5t183.5 65.5t183.5 -65.5t70.5 -170.5q0 -106 -70.5 -171.5t-183.5 -65.5zM780 1855q-41 0 -65.5 -23.5t-24.5 -62.5q0 -40 24.5 -65t65.5 -25t65.5 25t24.5 65q0 39 -24.5 62.5t-65.5 23.5zM1075 240h-590 l-92 -240h-368l591 1401h330l590 -1401h-367zM961 535l-181 462l-180 -462h361z" />
<glyph unicode="&#xc9;" horiz-adv-x="1249" d="M797 1536h-310l164 328h350zM469 1092v-254h616v-295h-616v-242h707v-301h-1053v1393h1053v-301h-707z" />
<glyph unicode="&#xcb;" horiz-adv-x="1249" d="M403 1522q-78 0 -133 52t-55 128t55 128t133 52q77 0 132 -52t55 -128t-55 -128t-132 -52zM872 1522q-78 0 -133 52t-55 128t55 128t133 52q77 0 132 -52t55 -128t-55 -128t-132 -52zM469 1092v-254h616v-295h-616v-242h707v-301h-1053v1393h1053v-301h-707z" />
<glyph unicode="&#xd6;" horiz-adv-x="1654" d="M592 1882q77 0 131.5 -52t54.5 -128t-54.5 -128t-131.5 -52q-79 0 -134 52t-55 128t55 128t134 52zM1061 1882q77 0 131.5 -52t54.5 -128t-54.5 -128t-131.5 -52q-79 0 -134 52t-55 128t55 128t134 52zM827 1421q155 0 293 -56.5t236 -153.5t154.5 -231t56.5 -284 t-56.5 -284t-154.5 -231t-236 -153.5t-293 -56.5q-206 0 -375.5 96t-265.5 262.5t-96 366.5t96 366.5t265.5 262.5t375.5 96zM827 293q166 0 276.5 118t110.5 285t-110.5 285.5t-276.5 118.5t-276.5 -118.5t-110.5 -285.5t110.5 -285t276.5 -118z" />
<glyph unicode="&#xdc;" horiz-adv-x="1501" d="M516 1882q77 0 131.5 -52t54.5 -128t-54.5 -128t-131.5 -52q-78 0 -133 52t-55 128t55 128t133 52zM985 1882q77 0 131.5 -52t54.5 -128t-54.5 -128t-131.5 -52q-78 0 -133 52t-55 128t55 128t133 52zM1399 1393v-744q0 -321 -173.5 -500.5t-475.5 -179.5 q-300 0 -474 179.5t-174 500.5v744h349v-750q0 -160 81.5 -255t217.5 -95q137 0 219 95t82 255v750h348z" />
<glyph unicode="&#xe0;" horiz-adv-x="1277" d="M520 1141l-205 327h351l163 -327h-309zM1165 993v-993h-331v55q-118 -75 -273 -75q-99 0 -190 40t-157.5 108t-106 165t-39.5 205q0 145 67 264.5t180 186.5t246 67q153 0 273 -76v53h331zM627 252q129 0 207 92v307q-80 94 -207 94q-100 0 -167 -71.5t-67 -175.5 t67 -175t167 -71z" />
<glyph unicode="&#xe1;" horiz-adv-x="1277" d="M821 1141h-309l164 327h350zM1165 993v-993h-331v55q-118 -75 -273 -75q-99 0 -190 40t-157.5 108t-106 165t-39.5 205q0 145 67 264.5t180 186.5t246 67q153 0 273 -76v53h331zM627 252q129 0 207 92v307q-80 94 -207 94q-100 0 -167 -71.5t-67 -175.5t67 -175t167 -71z " />
<glyph unicode="&#xe4;" horiz-adv-x="1277" d="M430 1126q-78 0 -133 52.5t-55 128.5t55 128t133 52q77 0 131.5 -52t54.5 -128t-54.5 -128.5t-131.5 -52.5zM899 1126q-78 0 -133 52.5t-55 128.5t55 128t133 52q77 0 131.5 -52t54.5 -128t-54.5 -128.5t-131.5 -52.5zM1165 993v-993h-331v55q-118 -75 -273 -75 q-99 0 -190 40t-157.5 108t-106 165t-39.5 205q0 145 67 264.5t180 186.5t246 67q153 0 273 -76v53h331zM627 252q129 0 207 92v307q-80 94 -207 94q-100 0 -167 -71.5t-67 -175.5t67 -175t167 -71z" />
<glyph unicode="&#xe5;" horiz-adv-x="1277" d="M664 1122q-113 0 -183.5 66t-70.5 172q0 105 70.5 170t183.5 65t183.5 -65t70.5 -170q0 -106 -70.5 -172t-183.5 -66zM664 1446q-41 0 -66 -24t-25 -62q0 -40 25 -65t66 -25t65.5 25t24.5 65q0 39 -24.5 62.5t-65.5 23.5zM1165 993v-993h-331v55q-118 -75 -273 -75 q-99 0 -190 40t-157.5 108t-106 165t-39.5 205q0 145 67 264.5t180 186.5t246 67q153 0 273 -76v53h331zM627 252q129 0 207 92v307q-80 94 -207 94q-100 0 -167 -71.5t-67 -175.5t67 -175t167 -71z" />
<glyph unicode="&#xe9;" horiz-adv-x="1173" d="M756 1141h-310l164 327h351zM1104 518q0 -75 -6 -112l2 -7h-709q22 -72 77.5 -115.5t145.5 -43.5q106 0 152 71h328q-35 -153 -167 -243.5t-317 -90.5q-243 0 -392.5 146t-149.5 375q0 228 146 373t382 145q144 0 259.5 -61.5t182 -175.5t66.5 -261zM596 760 q-83 0 -136.5 -44.5t-72.5 -121.5h406q-13 81 -65 123.5t-132 42.5z" />
<glyph unicode="&#xeb;" horiz-adv-x="1173" d="M365 1126q-78 0 -133.5 52.5t-55.5 128.5t55 128t134 52q77 0 131.5 -52t54.5 -128t-54.5 -128.5t-131.5 -52.5zM834 1126q-78 0 -133.5 52.5t-55.5 128.5t55 128t134 52q77 0 131.5 -52t54.5 -128t-54.5 -128.5t-131.5 -52.5zM1104 518q0 -75 -6 -112l2 -7h-709 q22 -72 77.5 -115.5t145.5 -43.5q106 0 152 71h328q-35 -153 -167 -243.5t-317 -90.5q-243 0 -392.5 146t-149.5 375q0 228 146 373t382 145q144 0 259.5 -61.5t182 -175.5t66.5 -261zM596 760q-83 0 -136.5 -44.5t-72.5 -121.5h406q-13 81 -65 123.5t-132 42.5z" />
<glyph unicode="&#xf6;" horiz-adv-x="1214" d="M375 1487q77 0 131.5 -52t54.5 -128t-54.5 -128.5t-131.5 -52.5q-78 0 -133.5 52.5t-55.5 128.5t55 128t134 52zM844 1487q77 0 131.5 -52t54.5 -128t-54.5 -128.5t-131.5 -52.5q-78 0 -133.5 52.5t-55.5 128.5t55 128t134 52zM606 1016q234 0 386.5 -146.5t152.5 -371.5 q0 -228 -152.5 -378.5t-386.5 -150.5t-386 150.5t-152 378.5q0 225 152 371.5t386 146.5zM608 256q98 0 160.5 69t62.5 171q0 99 -62.5 166t-160.5 67q-99 0 -162 -67t-63 -166q0 -102 63 -171t162 -69z" />
<glyph unicode="&#xf7;" horiz-adv-x="1396" d="M698 915q-71 0 -121.5 48t-50.5 118t50.5 118t121.5 48t122.5 -48t51.5 -118t-51.5 -118t-122.5 -48zM199 803h999v-262h-999v262zM698 106q-71 0 -121.5 48t-50.5 118t50.5 118t121.5 48t122.5 -48t51.5 -118t-51.5 -118t-122.5 -48z" />
<glyph unicode="&#xfc;" horiz-adv-x="1241" d="M389 1126q-78 0 -133 52.5t-55 128.5t55 128t133 52q77 0 131.5 -52t54.5 -128t-54.5 -128.5t-131.5 -52.5zM858 1126q-78 0 -133 52.5t-55 128.5t55 128t133 52q77 0 131.5 -52t54.5 -128t-54.5 -128.5t-131.5 -52.5zM1128 993v-993h-331v66q-127 -97 -273 -97 q-191 0 -307.5 123.5t-116.5 333.5v567h332v-516q0 -103 49 -156t133 -53q93 0 183 99v626h331z" />
<glyph unicode="&#x192;" horiz-adv-x="1210" d="M948 1102q-74 0 -117.5 -44t-54.5 -120l-20 -150h315v-264h-352l-43 -309q-30 -221 -143 -344t-300 -123q-120 0 -264 39l45 283q89 -19 152 -19q76 0 119.5 43t52.5 119l43 311h-250v264h287l20 150q31 220 143.5 342.5t299.5 122.5q127 0 264 -37l-43 -283 q-93 19 -154 19z" />
<glyph unicode="&#x2c6;" d="M616 1268l-108 -135h-289l240 335h313l238 -335h-289z" />
<glyph unicode="&#x2c7;" d="M1012 1460l-238 -327h-319l-238 327h291l108 -135l105 135h291z" />
<glyph unicode="&#x2d8;" d="M737 1454h236q0 -165 -99 -255.5t-260 -90.5t-259.5 90.5t-98.5 255.5h236q0 -66 33.5 -99.5t88.5 -33.5q54 0 88.5 33.5t34.5 99.5z" />
<glyph unicode="&#x2d9;" d="M614 1126q-78 0 -133 52.5t-55 128.5t55 128t133 52q77 0 132 -52t55 -128t-55 -128.5t-132 -52.5z" />
<glyph unicode="&#x2da;" d="M610 1595q113 0 183.5 -65t70.5 -170q0 -106 -70.5 -172t-183.5 -66t-183.5 66t-70.5 172q0 105 70.5 170t183.5 65zM610 1270q41 0 65.5 25t24.5 65q0 39 -24.5 62.5t-65.5 23.5t-65.5 -23.5t-24.5 -62.5q0 -40 24.5 -65t65.5 -25z" />
<glyph unicode="&#x2db;" d="M721 143l39 -127q-67 -13 -95 -32.5t-28 -49.5q0 -57 102 -57q42 0 97 14l30 -245q-60 -29 -166 -29q-147 0 -241 69.5t-94 190.5q0 94 92 170.5t264 95.5z" />
<glyph unicode="&#x2dc;" d="M774 1444h244q0 -85 -26.5 -149.5t-69 -98.5t-93.5 -48.5t-103 -6.5t-95 33l-78 45q-30 19 -48.5 13.5t-26 -22t-7.5 -41.5h-244q0 85 26.5 149.5t68.5 98.5t93.5 48.5t103.5 7t95 -32.5l78 -45q30 -19 48.5 -13.5t26 21.5t7.5 41z" />
<glyph unicode="&#x2dd;" d="M721 1470l-150 -327h-254l109 327h295zM1057 1470l-150 -327h-254l109 327h295z" />
<glyph unicode="&#x2000;" horiz-adv-x="1002" />
<glyph unicode="&#x2001;" horiz-adv-x="2005" />
<glyph unicode="&#x2002;" horiz-adv-x="1002" />
<glyph unicode="&#x2003;" horiz-adv-x="2005" />
<glyph unicode="&#x2004;" horiz-adv-x="668" />
<glyph unicode="&#x2005;" horiz-adv-x="501" />
<glyph unicode="&#x2006;" horiz-adv-x="334" />
<glyph unicode="&#x2007;" horiz-adv-x="334" />
<glyph unicode="&#x2008;" horiz-adv-x="250" />
<glyph unicode="&#x2009;" horiz-adv-x="401" />
<glyph unicode="&#x200a;" horiz-adv-x="111" />
<glyph unicode="&#x2010;" horiz-adv-x="1134" d="M199 371v315h739v-315h-739z" />
<glyph unicode="&#x2011;" horiz-adv-x="1134" d="M199 371v315h739v-315h-739z" />
<glyph unicode="&#x2012;" horiz-adv-x="1134" d="M199 371v315h739v-315h-739z" />
<glyph unicode="&#x2013;" horiz-adv-x="1413" d="M199 373v317h1018v-317h-1018z" />
<glyph unicode="&#x2014;" horiz-adv-x="2189" d="M199 373v317h1792v-317h-1792z" />
<glyph unicode="&#x2018;" horiz-adv-x="479" d="M424 1391l-107 -228q107 -46 107 -147q0 -73 -53.5 -124.5t-130.5 -51.5t-131 51.5t-54 124.5q0 38 10.5 69t51.5 101l123 205h184z" />
<glyph unicode="&#x2019;" horiz-adv-x="479" d="M55 864l107 228q-107 46 -107 147q0 73 54 124.5t131 51.5t130.5 -51.5t53.5 -124.5q0 -38 -10.5 -69t-51.5 -101l-122 -205h-185z" />
<glyph unicode="&#x201a;" horiz-adv-x="479" d="M55 -231l107 227q-107 46 -107 149q0 72 54 123t131 51t130.5 -50.5t53.5 -125.5q0 -37 -10.5 -69t-51.5 -101l-122 -204h-185z" />
<glyph unicode="&#x201c;" horiz-adv-x="903" d="M424 1391l-107 -228q107 -46 107 -147q0 -73 -53.5 -124.5t-130.5 -51.5t-131 51.5t-54 124.5q0 38 10.5 69t51.5 101l123 205h184zM848 1391l-107 -228q105 -45 105 -147q0 -73 -53.5 -124.5t-128.5 -51.5q-77 0 -132 51.5t-55 124.5q0 36 11 67.5t53 102.5l123 205h184 z" />
<glyph unicode="&#x201d;" horiz-adv-x="903" d="M55 864l107 228q-107 46 -107 147q0 73 54 124.5t131 51.5t130.5 -51.5t53.5 -124.5q0 -38 -10.5 -69t-51.5 -101l-122 -205h-185zM479 864l105 228q-105 46 -105 147q0 73 54 124.5t131 51.5t130.5 -51.5t53.5 -124.5q0 -38 -10.5 -69t-53.5 -101l-120 -205h-185z" />
<glyph unicode="&#x201e;" horiz-adv-x="907" d="M55 -231l107 227q-107 46 -107 149q0 72 54 123t131 51t130.5 -50.5t53.5 -125.5q0 -37 -10.5 -69t-51.5 -101l-122 -204h-185zM483 -231l107 227q-107 46 -107 149q0 72 54 123t131 51t130.5 -50.5t53.5 -125.5q0 -37 -10 -69t-51 -101l-123 -204h-185z" />
<glyph unicode="&#x2020;" horiz-adv-x="825" d="M514 1042v-434h-203v434h-229v201h229v230h203v-230h229v-201h-229z" />
<glyph unicode="&#x2021;" horiz-adv-x="825" d="M514 989h229v-201h-229v-180h-203v180h-229v201h229v107h-229v200h229v177h203v-177h229v-200h-229v-107z" />
<glyph unicode="&#x2022;" horiz-adv-x="733" d="M365 299q-125 0 -217.5 92.5t-92.5 216.5t92.5 217t217.5 93q126 0 219.5 -92.5t93.5 -217.5q0 -124 -93.5 -216.5t-219.5 -92.5z" />
<glyph unicode="&#x2026;" horiz-adv-x="1513" d="M242 -37q-77 0 -132 52t-55 128q0 75 55 127t132 52t131.5 -52t54.5 -127q0 -76 -54.5 -128t-131.5 -52zM752 -37q-76 0 -130.5 52t-54.5 128q0 74 54.5 126.5t130.5 52.5q77 0 132.5 -52t55.5 -127q0 -76 -55.5 -128t-132.5 -52zM1272 -37q-77 0 -132 52t-55 128 q0 75 55 127t132 52t131.5 -52t54.5 -127q0 -76 -54.5 -128t-131.5 -52z" />
<glyph unicode="&#x202f;" horiz-adv-x="401" />
<glyph unicode="&#x2030;" horiz-adv-x="3182" d="M553 1423q180 0 300 -114.5t120 -294.5q0 -181 -120 -296.5t-300 -115.5t-300 115.5t-120 296.5q0 180 120 294.5t300 114.5zM750 0h-222l930 1393h221zM555 819q79 0 136 55t57 140t-57 139.5t-136 54.5q-82 0 -138.5 -54t-56.5 -140t57 -140.5t138 -54.5zM1679 791 q180 0 300 -115t120 -295q0 -181 -120 -296.5t-300 -115.5t-299.5 115.5t-119.5 296.5q0 180 119.5 295t299.5 115zM2630 791q180 0 299.5 -115t119.5 -295q0 -181 -119.5 -296.5t-299.5 -115.5t-300 115.5t-120 296.5q0 180 120 295t300 115zM1679 184q80 0 137.5 55 t57.5 142q0 84 -57.5 138t-137.5 54t-136 -54t-56 -138q0 -87 56 -142t136 -55zM2628 184q80 0 137 55t57 142q0 84 -57 138t-137 54t-136.5 -54t-56.5 -138q0 -87 56.5 -142t136.5 -55z" />
<glyph unicode="&#x2039;" horiz-adv-x="579" d="M535 846l-195 -330l195 -330h-295l-195 330l195 330h295z" />
<glyph unicode="&#x203a;" horiz-adv-x="585" d="M541 516l-195 -330h-295l195 330l-195 330h295z" />
<glyph unicode="&#x2044;" horiz-adv-x="1091" d="M193 0h-224l930 1393h223z" />
<glyph unicode="&#x205f;" horiz-adv-x="501" />
<glyph unicode="&#x20ac;" horiz-adv-x="1734" d="M944 295q136 0 226 75.5t120 207.5h355q-32 -272 -223.5 -439.5t-475.5 -167.5q-247 0 -434.5 129t-261.5 346h-178v183h139q-2 23 -2 67v37h-137v182h168q68 229 259.5 367.5t446.5 138.5q141 0 263.5 -44.5t213 -123.5t148.5 -191.5t74 -246.5h-355q-30 132 -120 207.5 t-226 75.5q-107 0 -193.5 -48.5t-136.5 -134.5h469l-47 -182h-475l-2 -37q0 -21 4 -67h449l-47 -183h-330q52 -72 131.5 -111.5t177.5 -39.5z" />
<glyph unicode="&#x2122;" horiz-adv-x="1439" d="M602 1391v-164h-186v-434h-176v434h-185v164h547zM1356 1391v-598h-176v268l-131 -193v-2h-93v2l-133 195l2 -270h-174v598h131l222 -306l219 306h133z" />
<glyph unicode="&#x25fc;" horiz-adv-x="995" d="M0 995h995v-995h-995v995z" />
<glyph unicode="&#xfb01;" horiz-adv-x="1503" d="M1384 993v-993h-331v709h-471v-709h-332v709h-244v284h244v78q0 231 132.5 368.5t336.5 137.5q75 0 144.5 -9t109.5 -17.5t160 -37.5l-56 -278q-9 2 -38.5 8t-37 7.5t-31.5 6t-33.5 6t-29.5 4.5t-32 4t-30.5 2.5t-35 2t-35.5 0.5q-93 0 -142.5 -55t-49.5 -156v-72h802z " />
<glyph unicode="&#xfb02;" horiz-adv-x="1490" d="M250 993v119q0 212 121.5 338.5t314.5 126.5q127 0 264 -37l-45 -276q-85 18 -151 18q-78 0 -125 -44.5t-47 -117.5v-127h303v-284h-303v-709h-332v709h-244v284h244zM1378 1454v-1454h-331v1454h331z" />
</font>
</defs>
</svg>
